<?plantuml 1.2026.1?><svg xmlns="http://www.w3.org/2000/svg" xmlns:xlink="http://www.w3.org/1999/xlink" contentStyleType="text/css" data-diagram-type="DESCRIPTION" height="806px" preserveAspectRatio="none" style="width:681px;height:806px;background:#FFFFFF;" version="1.1" viewBox="0 0 681 806" width="681px" zoomAndPan="magnify"><title>MES x MCP&#65288;&#21151;&#33021;&#27169;&#32068;&#38364;&#20418;&#65289;</title><defs/><g><g class="title" data-source-line="1"><text fill="#000000" font-family="sans-serif" font-size="14" font-weight="bold" lengthAdjust="spacing" textLength="198.8228" x="234.5402" y="22.9951">MES x MCP&#65288;&#21151;&#33021;&#27169;&#32068;&#38364;&#20418;&#65289;</text></g><!--cluster MESHost--><g class="cluster" data-qualified-name="MESHost" data-source-line="7" id="ent0003"><rect fill="none" height="313.89" rx="2.5" ry="2.5" style="stroke:#181818;stroke-width:1;" width="384" x="7" y="182.0869"/><text fill="#000000" font-family="sans-serif" font-size="14" font-weight="bold" lengthAdjust="spacing" textLength="275.9732" x="61.0134" y="197.082">MES_Host&#65288;MES Portal / &#24037;&#24288;&#20013;&#25511;&#21488;&#65289;</text></g><!--cluster MCPServer--><g class="cluster" data-qualified-name="MCPServer" data-source-line="13" id="ent0007"><rect fill="none" height="119.6" rx="2.5" ry="2.5" style="stroke:#181818;stroke-width:1;" width="550" x="40" y="552.9769"/><text fill="#000000" font-family="sans-serif" font-size="14" font-weight="bold" lengthAdjust="spacing" textLength="224.5873" x="202.7063" y="567.972">MCP_Server&#65288;&#31449;&#40670;&#20171;&#38754;/&#36969;&#37197;&#22120;&#65289;</text></g><!--entity UI--><g class="entity" data-qualified-name="MESHost.UI" data-source-line="8" id="ent0004"><rect fill="#F1F1F1" height="36.2969" rx="2.5" ry="2.5" style="stroke:#181818;stroke-width:0.5;" width="169.433" x="45.28" y="217.0869"/><text fill="#000000" font-family="sans-serif" font-size="14" lengthAdjust="spacing" textLength="149.433" x="55.28" y="240.082">&#20171;&#38754;&#65288;&#30475;&#26495;/&#26597;&#35426;/&#24037;&#21934;&#65289;</text></g><!--entity LLM--><g class="entity" data-qualified-name="MESHost.LLM" data-source-line="9" id="ent0005"><rect fill="#F1F1F1" height="36.2969" rx="2.5" ry="2.5" style="stroke:#181818;stroke-width:0.5;" width="211.4328" x="52.28" y="330.3869"/><text fill="#000000" font-family="sans-serif" font-size="14" lengthAdjust="spacing" textLength="191.4328" x="62.28" y="353.382">&#22823;&#35486;&#35328;&#27169;&#22411;&#65288;&#20998;&#26512;/&#25688;&#35201;/&#25512;&#29702;&#65289;</text></g><!--entity MCPClient--><g class="entity" data-qualified-name="MESHost.MCPClient" data-source-line="10" id="ent0006"><rect fill="#F1F1F1" height="36.2969" rx="2.5" ry="2.5" style="stroke:#181818;stroke-width:0.5;" width="199.4633" x="35.27" y="443.6869"/><text fill="#000000" font-family="sans-serif" font-size="14" lengthAdjust="spacing" textLength="179.4633" x="45.27" y="466.682">MCP &#23458;&#25142;&#31471;&#65288;&#36899;&#25509;&#22120;/&#36681;&#36865;&#65289;</text></g><!--entity ToolFiles--><g class="entity" data-qualified-name="MCPServer.ToolFiles" data-source-line="14" id="ent0008"><rect fill="#F1F1F1" height="52.5938" rx="2.5" ry="2.5" style="stroke:#181818;stroke-width:0.5;" width="122.7164" x="83.64" y="595.9769"/><text fill="#000000" font-family="sans-serif" font-size="14" lengthAdjust="spacing" textLength="97.9996" x="93.64" y="618.972">&#24037;&#20855;&#65306;&#35712;&#21462;&#27284;&#26696;</text><text fill="#000000" font-family="sans-serif" font-size="14" lengthAdjust="spacing" textLength="102.7164" x="93.64" y="635.2689">&#65288;&#35712;&#26412;&#27231;/&#25991;&#20214;&#65289;</text></g><!--entity ToolShopfloor--><g class="entity" data-qualified-name="MCPServer.ToolShopfloor" data-source-line="15" id="ent0009"><rect fill="#F1F1F1" height="52.5938" rx="2.5" ry="2.5" style="stroke:#181818;stroke-width:0.5;" width="145.9995" x="241" y="595.9769"/><text fill="#000000" font-family="sans-serif" font-size="14" lengthAdjust="spacing" textLength="125.9995" x="251" y="618.972">&#24037;&#20855;&#65306;&#26597;&#35426;&#29694;&#22580;&#36039;&#26009;</text><text fill="#000000" font-family="sans-serif" font-size="14" lengthAdjust="spacing" textLength="97.9996" x="251" y="635.2689">&#65288;&#26597;&#29986;&#32218;&#36039;&#26009;&#65289;</text></g><!--entity ToolAPI--><g class="entity" data-qualified-name="MCPServer.ToolAPI" data-source-line="16" id="ent0010"><rect fill="#F1F1F1" height="52.5938" rx="2.5" ry="2.5" style="stroke:#181818;stroke-width:0.5;" width="144.5982" x="421.7" y="595.9769"/><text fill="#000000" font-family="sans-serif" font-size="14" lengthAdjust="spacing" textLength="124.5982" x="431.7" y="618.972">&#24037;&#20855;&#65306;&#21628;&#21483;&#20225;&#26989; API</text><text fill="#000000" font-family="sans-serif" font-size="14" lengthAdjust="spacing" textLength="111.9995" x="431.7" y="635.2689">&#65288;&#21628;&#21483;&#20225;&#26989;&#26381;&#21209;&#65289;</text></g><!--entity user--><g class="entity" data-qualified-name="user" data-source-line="5" id="ent0002"><ellipse cx="129.9998" cy="51.2969" fill="#F1F1F1" rx="8" ry="8" style="stroke:#181818;stroke-width:0.5;"/><path d="M129.9998,59.2969 L129.9998,86.2969 M116.9998,67.2969 L142.9998,67.2969 M129.9998,86.2969 L116.9998,101.2969 M129.9998,86.2969 L142.9998,101.2969" fill="none" style="stroke:#181818;stroke-width:0.5;"/><text fill="#000000" font-family="sans-serif" font-size="14" lengthAdjust="spacing" textLength="69.9997" x="95" y="115.792">&#29694;&#22580;&#20351;&#29992;&#32773;</text></g><!--entity LocalData--><g class="entity" data-qualified-name="LocalData" data-source-line="19" id="ent0011"><path d="M66.11,738.0769 C66.11,728.0769 137.0009,728.0769 137.0009,728.0769 C137.0009,728.0769 207.8919,728.0769 207.8919,738.0769 L207.8919,779.6706 C207.8919,789.6706 137.0009,789.6706 137.0009,789.6706 C137.0009,789.6706 66.11,789.6706 66.11,779.6706 L66.11,738.0769" fill="#F1F1F1" style="stroke:#181818;stroke-width:0.5;"/><path d="M66.11,738.0769 C66.11,748.0769 137.0009,748.0769 137.0009,748.0769 C137.0009,748.0769 207.8919,748.0769 207.8919,738.0769" fill="none" style="stroke:#181818;stroke-width:0.5;"/><text fill="#000000" font-family="sans-serif" font-size="14" lengthAdjust="spacing" textLength="55.9998" x="76.11" y="765.072">&#26412;&#27231;&#36039;&#26009;</text><text fill="#000000" font-family="sans-serif" font-size="14" lengthAdjust="spacing" textLength="121.7819" x="76.11" y="781.3689">&#65288;SOP/&#22577;&#34920;/&#27284;&#26696;&#65289;</text></g><!--entity MESDB--><g class="entity" data-qualified-name="MESDB" data-source-line="20" id="ent0012"><path d="M243.28,738.0769 C243.28,728.0769 313.9966,728.0769 313.9966,728.0769 C313.9966,728.0769 384.7131,728.0769 384.7131,738.0769 L384.7131,779.6706 C384.7131,789.6706 313.9966,789.6706 313.9966,789.6706 C313.9966,789.6706 243.28,789.6706 243.28,779.6706 L243.28,738.0769" fill="#F1F1F1" style="stroke:#181818;stroke-width:0.5;"/><path d="M243.28,738.0769 C243.28,748.0769 313.9966,748.0769 313.9966,748.0769 C313.9966,748.0769 384.7131,748.0769 384.7131,738.0769" fill="none" style="stroke:#181818;stroke-width:0.5;"/><text fill="#000000" font-family="sans-serif" font-size="14" lengthAdjust="spacing" textLength="76.2615" x="253.28" y="765.072">MES &#36039;&#26009;&#24235;</text><text fill="#000000" font-family="sans-serif" font-size="14" lengthAdjust="spacing" textLength="121.4331" x="253.28" y="781.3689">&#65288;&#24037;&#21934;/&#22577;&#24037;/&#33391;&#29575;&#65289;</text></g><!--entity RemoteAPI--><g class="entity" data-qualified-name="RemoteAPI" data-source-line="21" id="ent0013"><path d="M428.1178,736.0413 C432.3624,729.3141 439.6646,728.7325 444.2807,735.5995 C449.6276,727.3933 457.5834,729.3878 460.6889,737.811 C464.7189,728.5056 473.7336,729.5207 478.6449,736.8602 C482.6861,729.3354 490.4136,729.1303 494.7054,736.5915 C498.1204,729.7003 503.8708,727.6638 508.9816,734.8748 C514.2233,728.8179 520.4313,728.6261 524.8284,735.8802 C528.173,728.9638 535.3871,726.4222 540.2707,734.2706 C545.2569,724.7634 552.7092,725.9077 557.6952,734.2708 C562.9357,725.4144 569.3115,727.0254 574.573,734.2488 C581.288,727.4799 585.9205,728.6468 589.9589,736.9764 C594.2671,729.9239 599.9637,727.6068 605.7133,735.4521 C612.201,728.6208 617.2044,729.8948 621.3574,737.9119 C624.6233,728.6568 632.7,727.3944 638.0319,735.9812 C643.1454,726.8198 649.6747,726.515 655.0776,735.7125 C671.8072,736.4228 674.9032,748.773 666.2157,760.7777 C671.2902,772.5833 666.6773,782.2487 653.0879,783.0566 C649.698,789.8567 642.5104,791.5947 637.4599,784.9931 C633.0804,792.8043 626.2083,792.7547 621.2274,785.6474 C616.5663,792.621 609.5955,792.7605 604.6967,785.9321 C600.5714,792.3077 593.5512,793.3685 589.71,785.6305 C585.6587,792.1455 579.8398,794.224 574.8529,786.6147 C569.326,793.8706 563.5212,795.694 557.4791,787.1823 C553.1012,794.8224 547.1946,794.9074 542.8706,787.1312 C537.3192,794.6886 530.7822,796.364 525.1275,787.241 C519.4134,793.4179 512.6906,793.7253 509.1599,784.9149 C504.4766,792.6817 499.0243,793.2363 493.0239,786.3669 C487.0363,795.0652 479.9745,792.0674 475.7747,784.474 C471.5942,791.8816 464.7712,790.2678 461.3744,783.6684 C456.5032,792.5184 451.3865,791.7421 444.9822,785.3132 C440.3611,790.9283 433.9632,791.634 430.2534,784.2785 C415.2848,778.7915 415.3958,768.8467 425.9239,758.9939 C417.0276,750.329 417.9998,742.8886 428.1178,736.0413" fill="#F1F1F1" style="stroke:#181818;stroke-width:0.5;"/><text fill="#000000" font-family="sans-serif" font-size="14" lengthAdjust="spacing" textLength="55.9998" x="434.42" y="755.572">&#22806;&#37096;&#26381;&#21209;</text><text fill="#000000" font-family="sans-serif" font-size="14" lengthAdjust="spacing" textLength="211.1552" x="434.42" y="771.8689">&#65288;ERP/WMS/QMS/SCADA API&#65289;</text></g><!--link user to UI--><g class="link" data-entity-1="ent0002" data-entity-2="ent0004" data-link-type="dependency" data-source-line="23" id="lnk14"><path d="M105.15,119.2469 C100.15,128.6169 95.62,138.9069 93,149.0869 C86.69,173.5969 98.4033,195.2946 111.2133,212.1046" fill="none" id="user-to-UI" style="stroke:#181818;stroke-width:1;"/><polygon fill="#181818" points="114.85,216.8769,112.5765,207.294,111.8194,212.9,106.2135,212.1429,114.85,216.8769" style="stroke:#181818;stroke-width:1;"/><text fill="#000000" font-family="sans-serif" font-size="13" lengthAdjust="spacing" textLength="26" x="94" y="162.1538">&#25552;&#21839;</text></g><!--link UI to user--><g class="link" data-entity-1="ent0004" data-entity-2="ent0002" data-link-type="dependency" data-source-line="35" id="lnk24"><path d="M130,216.7269 C130,193.1569 130,156.5969 130,125.5869" fill="none" id="UI-to-user" style="stroke:#181818;stroke-width:1;"/><polygon fill="#181818" points="130,119.5869,126,128.5869,130,124.5869,134,128.5869,130,119.5869" style="stroke:#181818;stroke-width:1;"/><text fill="#000000" font-family="sans-serif" font-size="13" lengthAdjust="spacing" textLength="52.0001" x="131" y="162.1538">&#39023;&#31034;&#32080;&#26524;</text></g><!--link UI to LLM--><g class="link" data-entity-1="ent0004" data-entity-2="ent0005" data-link-type="dependency" data-source-line="24" id="lnk15"><path d="M107.56,253.7869 C94.24,266.4469 81.48,284.1069 90,300.3869 C96.53,312.8569 102.9459,319.4847 114.6559,326.8747" fill="none" id="UI-to-LLM" style="stroke:#181818;stroke-width:1;"/><polygon fill="#181818" points="119.73,330.0769,114.2537,321.8909,115.5016,327.4084,109.9841,328.6563,119.73,330.0769" style="stroke:#181818;stroke-width:1;"/><text fill="#000000" font-family="sans-serif" font-size="13" lengthAdjust="spacing" textLength="52.0001" x="91" y="296.4538">&#36681;&#20132;&#21839;&#38988;</text></g><!--link LLM to UI--><g class="link" data-entity-1="ent0005" data-entity-2="ent0004" data-link-type="dependency" data-source-line="34" id="lnk23"><path d="M156.26,329.9069 C154.74,316.8969 152.11,298.8569 148,283.3869 C145.35,273.3969 143.5788,268.1514 140.0088,259.4114" fill="none" id="LLM-to-UI" style="stroke:#181818;stroke-width:1;"/><polygon fill="#181818" points="137.74,253.8569,137.4402,263.7012,139.6307,258.4856,144.8462,260.6761,137.74,253.8569" style="stroke:#181818;stroke-width:1;"/><text fill="#000000" font-family="sans-serif" font-size="13" lengthAdjust="spacing" textLength="121.38" x="152" y="296.4538">&#22238;&#31572;&#65288;&#21547;&#24341;&#29992;/&#25976;&#25818;&#65289;</text></g><!--link LLM to MCPClient--><g class="link" data-entity-1="ent0005" data-entity-2="ent0006" data-link-type="dependency" data-source-line="25" id="lnk16"><path d="M90.68,367.1069 C76.58,373.9969 63.45,383.5269 55,396.6869 C42.64,415.9369 57.4517,429.398 80.6417,440.648" fill="none" id="LLM-to-MCPClient" style="stroke:#181818;stroke-width:1;"/><polygon fill="#181818" points="86.04,443.2669,79.6884,435.7397,81.5414,441.0845,76.1967,442.9375,86.04,443.2669" style="stroke:#181818;stroke-width:1;"/><text fill="#000000" font-family="sans-serif" font-size="13" lengthAdjust="spacing" textLength="195.0002" x="56" y="409.7538">&#30332;&#20986;&#24037;&#20855;&#35531;&#27714;&#65288;&#38656;&#35201;&#22806;&#37096;&#36039;&#26009;&#26178;&#65289;</text></g><!--link MCPClient to LLM--><g class="link" data-entity-1="ent0006" data-entity-2="ent0005" data-link-type="dependency" data-source-line="33" id="lnk22"><path d="M219.09,443.2569 C233.64,436.4069 246.97,426.8969 256,413.6869 C269.94,393.2869 254.1421,380.0471 227.8421,369.4071" fill="none" id="MCPClient-to-LLM" style="stroke:#181818;stroke-width:1;"/><polygon fill="#181818" points="222.28,367.1569,229.123,374.2402,226.9151,369.032,232.1232,366.8241,222.28,367.1569" style="stroke:#181818;stroke-width:1;"/><text fill="#000000" font-family="sans-serif" font-size="13" lengthAdjust="spacing" textLength="78.0001" x="261" y="409.7538">&#24037;&#20855;&#22519;&#34892;&#32080;&#26524;</text></g><!--link MCPClient to MCPServer--><g class="link" data-entity-1="ent0006" data-entity-2="ent0007" data-link-type="dependency" data-source-line="26" id="lnk17"><path d="M70.9698,483.0629 C56.2598,490.3929 47.6,497.9269 39,511.9769 C26.485,532.4469 28.47,559.2444 33.7138,581.1819 C35.0247,586.6663 36.5393,591.8469 38.0819,596.5489 C38.4676,597.7245 38.855,598.8701 39.2414,599.983 C39.4346,600.5395 39.6276,601.0878 39.82,601.6277 C39.8681,601.7626 37.8908,596.2492 37.9388,596.3831" fill="none" id="MCPClient-MCPServer" style="stroke:#181818;stroke-width:1;"/><polygon fill="#181818" points="76.34,480.3869,66.5007,480.8207,71.8648,482.6169,70.0687,487.981,76.34,480.3869" style="stroke:#181818;stroke-width:1;"/><polygon fill="#181818" points="39.9641,602.0309,40.6913,592.209,38.2763,597.3244,33.1609,594.9094,39.9641,602.0309" style="stroke:#181818;stroke-width:1;"/><text fill="#000000" font-family="sans-serif" font-size="13" lengthAdjust="spacing" textLength="58.2652" x="40" y="525.0438">MCP &#21332;&#23450;</text></g><!--link MCPServer to MCPClient--><g class="link" data-entity-1="ent0007" data-entity-2="ent0006" data-link-type="dependency" data-source-line="32" id="lnk21"><path d="M57.0361,552.6197 C57.2927,552.0943 57.5556,551.5725 57.8251,551.0546 C58.364,550.0186 58.9288,548.9982 59.5207,547.9956 C61.8884,543.9852 64.69,540.2606 68,536.9769 C79.33,525.7469 90.52,538.9169 103,528.9769 C118.27,516.8169 125.0727,501.3363 129.3927,486.2063" fill="none" id="MCPServer-to-MCPClient" style="stroke:#181818;stroke-width:1;"/><polygon fill="#181818" points="131.04,480.4369,124.7227,487.9928,129.6672,485.2447,132.4153,490.1892,131.04,480.4369" style="stroke:#181818;stroke-width:1;"/><text fill="#000000" font-family="sans-serif" font-size="13" lengthAdjust="spacing" textLength="78.0001" x="119" y="525.0438">&#24037;&#20855;&#22519;&#34892;&#32080;&#26524;</text></g><!--link ToolFiles to LocalData--><g class="link" data-entity-1="ent0008" data-entity-2="ent0011" data-link-type="dependency" data-source-line="28" id="lnk18"><path d="M143.48,648.9069 C142.14,671.3369 140.5663,697.9375 139.1563,721.6375" fill="none" id="ToolFiles-to-LocalData" style="stroke:#181818;stroke-width:1;"/><polygon fill="#181818" points="138.8,727.6269,143.3274,718.8803,139.0969,722.6357,135.3416,718.4052,138.8,727.6269" style="stroke:#181818;stroke-width:1;"/></g><!--link ToolShopfloor to MESDB--><g class="link" data-entity-1="ent0009" data-entity-2="ent0012" data-link-type="dependency" data-source-line="29" id="lnk19"><path d="M314,648.9069 C314,671.3369 314,697.9269 314,721.6269" fill="none" id="ToolShopfloor-to-MESDB" style="stroke:#181818;stroke-width:1;"/><polygon fill="#181818" points="314,727.6269,318,718.6269,314,722.6269,310,718.6269,314,727.6269" style="stroke:#181818;stroke-width:1;"/></g><!--link ToolAPI to RemoteAPI--><g class="link" data-entity-1="ent0010" data-entity-2="ent0013" data-link-type="dependency" data-source-line="30" id="lnk20"><path d="M502.76,648.9069 C510.37,671.1769 519.468,697.8098 527.558,721.4598" fill="none" id="ToolAPI-to-RemoteAPI" style="stroke:#181818;stroke-width:1;"/><polygon fill="#181818" points="529.5,727.1369,530.3718,717.3267,527.8817,722.406,522.8024,719.9159,529.5,727.1369" style="stroke:#181818;stroke-width:1;"/></g><?plantuml-src TLJVJzDG57xlNt73Exdln9ZWm4Z2OgKQNqn87LKNoqgwOZJ6P0DXmy4sufXkZerD9eN9a2YCR4N-cTtRzeb_mNDxzwCZyh2aEJtVTxxldAypmeQgeE2qXDwYO42yjfBaKyLPlQHcrJxxw7ufTQzMhgqDGOY-3aUMP5rUH25jSKcBA153Cju1LbT2XXnvgIg288SCJKTsvY_P-zEzlB9pfXDRGt8KBKSLNH06dMWC1iu_qA86p6EpHKqtP1LXH5frqjdhNXpJz079_8B9OmmFFQmRlHVGS3mQwtPIxcuDEEnIYkvUOLgfEuSrp4ZopJxsoSmeYEmVE4Tbnuo1HL9ECSV9TLhEOhhzrVaHnpHjsjdrFdfsDZWAXoKXqgpHvBdTE06m6_jEqtLICB5pkU76uWF90J6WXW4YV1Xr7X3d9KL_e-XCTwFWTihS1dRZX-xQ5Z3vA7ZdJT_Cu5hhsYewpHZ9vEbHZbQJpo9020LQ-aaFAvZc4ztEUP_giQQfzyEg4hs5Y6-ENyxvdQ3vWaS7PJjNirj5NlEpIQ-qfHUgfkctC99jYsGQNIjEwyTeKfpn-Fn5MjeYgH5Aw6BBMf0D-RaSXLrnApuzqaCHaxrJfsfYRdfm9YqagrC0zA5Pi3YMj1jyl1SCnW1FsDauiTC9NyIcxWaXLLjUO1d9kwicL-WXf-T4_3GeuKVmamAJKvFCKXywfongXiBK2opeQ7pyBgGEJI2QoPATZ03Fh0HHWXgafDlUXx9RtHHOYRqQX0KQx8954cs-HwUHegShB6Mb66IJo-AUQC7xBeV8EpsYNcGca9VKhHnf5WLXS7-kPB2jaKjoATuUUkVmAZvxG_gRghbUKcavrKtxB4lB9P-qeVl_jFLtu6sCV2lRnpbsgco3M3lm3uBfpWNzN6HUUtlqTZo1tEg9lT_c9Fy0?></g></svg><?plantuml 1.2026.1?><svg xmlns="http://www.w3.org/2000/svg" xmlns:xlink="http://www.w3.org/1999/xlink" contentStyleType="text/css" data-diagram-type="DESCRIPTION" height="806px" preserveAspectRatio="none" style="width:717px;height:806px;background:#FFFFFF;" version="1.1" viewBox="0 0 717 806" width="717px" zoomAndPan="magnify"><title>MES x MCP&#65288;&#21151;&#33021;&#27169;&#32068;&#38364;&#20418;&#65289;</title><defs/><g><g class="title" data-source-line="1"><text fill="#000000" font-family="sans-serif" font-size="14" font-weight="bold" lengthAdjust="spacing" textLength="198.8228" x="252.0897" y="22.9951">MES x MCP&#65288;&#21151;&#33021;&#27169;&#32068;&#38364;&#20418;&#65289;</text></g><!--cluster MESHost--><g class="cluster" data-qualified-name="MESHost" data-source-line="7" id="ent0003"><rect fill="none" height="313.89" rx="2.5" ry="2.5" style="stroke:#181818;stroke-width:1;" width="577" x="28.79" y="182.0869"/><text fill="#000000" font-family="sans-serif" font-size="14" font-weight="bold" lengthAdjust="spacing" textLength="275.9732" x="179.3034" y="197.082">MES_Host&#65288;MES Portal / &#24037;&#24288;&#20013;&#25511;&#21488;&#65289;</text></g><!--cluster MCPServer--><g class="cluster" data-qualified-name="MCPServer" data-source-line="13" id="ent0007"><rect fill="none" height="119.6" rx="2.5" ry="2.5" style="stroke:#181818;stroke-width:1;" width="617" x="36.79" y="552.9769"/><text fill="#000000" font-family="sans-serif" font-size="14" font-weight="bold" lengthAdjust="spacing" textLength="222.2014" x="234.1893" y="567.972">MCP &#20282;&#26381;&#22120;&#65288;&#31449;&#40670;&#20171;&#38754; / &#36969;&#37197;&#22120;&#65289;</text></g><!--entity UI--><g class="entity" data-qualified-name="MESHost.UI" data-source-line="8" id="ent0004"><rect fill="#F1F1F1" height="36.2969" rx="2.5" ry="2.5" style="stroke:#181818;stroke-width:0.5;" width="173.6099" x="94.99" y="217.0869"/><text fill="#000000" font-family="sans-serif" font-size="14" lengthAdjust="spacing" textLength="153.6099" x="104.99" y="240.082">UI&#65288;&#30475;&#26495; / &#26597;&#35426; / &#24037;&#21934;&#65289;</text></g><!--entity LLM--><g class="entity" data-qualified-name="MESHost.LLM" data-source-line="9" id="ent0005"><rect fill="#F1F1F1" height="36.2969" rx="2.5" ry="2.5" style="stroke:#181818;stroke-width:0.5;" width="186.9126" x="106.34" y="330.3869"/><text fill="#000000" font-family="sans-serif" font-size="14" lengthAdjust="spacing" textLength="166.9126" x="116.34" y="353.382">LLM&#65288;&#20998;&#26512; / &#25688;&#35201; / &#25512;&#29702;&#65289;</text></g><!--entity MCPClient--><g class="entity" data-qualified-name="MESHost.MCPClient" data-source-line="10" id="ent0006"><rect fill="#F1F1F1" height="36.2969" rx="2.5" ry="2.5" style="stroke:#181818;stroke-width:0.5;" width="208.3636" x="70.61" y="443.6869"/><text fill="#000000" font-family="sans-serif" font-size="14" lengthAdjust="spacing" textLength="188.3636" x="80.61" y="466.682">MCP &#23458;&#25142;&#31471;&#65288;&#36899;&#25509;&#22120; / &#36681;&#36865;&#65289;</text></g><!--entity ToolFiles--><g class="entity" data-qualified-name="MCPServer.ToolFiles" data-source-line="14" id="ent0008"><rect fill="#F1F1F1" height="52.5938" rx="2.5" ry="2.5" style="stroke:#181818;stroke-width:0.5;" width="131.6168" x="79.98" y="595.9769"/><text fill="#000000" font-family="sans-serif" font-size="14" lengthAdjust="spacing" textLength="106.2852" x="89.98" y="618.972">Tool: ReadFiles</text><text fill="#000000" font-family="sans-serif" font-size="14" lengthAdjust="spacing" textLength="111.6168" x="89.98" y="635.2689">&#65288;&#35712;&#26412;&#27231; / &#25991;&#20214;&#65289;</text></g><!--entity ToolShopfloor--><g class="entity" data-qualified-name="MCPServer.ToolShopfloor" data-source-line="15" id="ent0009"><rect fill="#F1F1F1" height="52.5938" rx="2.5" ry="2.5" style="stroke:#181818;stroke-width:0.5;" width="168.2031" x="246.69" y="595.9769"/><text fill="#000000" font-family="sans-serif" font-size="14" lengthAdjust="spacing" textLength="148.2031" x="256.69" y="618.972">Tool: QueryShopfloor</text><text fill="#000000" font-family="sans-serif" font-size="14" lengthAdjust="spacing" textLength="97.9996" x="256.69" y="635.2689">&#65288;&#26597;&#29986;&#32218;&#36039;&#26009;&#65289;</text></g><!--entity ToolAPI--><g class="entity" data-qualified-name="MCPServer.ToolAPI" data-source-line="16" id="ent0010"><rect fill="#F1F1F1" height="52.5938" rx="2.5" ry="2.5" style="stroke:#181818;stroke-width:0.5;" width="179.0381" x="450.27" y="595.9769"/><text fill="#000000" font-family="sans-serif" font-size="14" lengthAdjust="spacing" textLength="159.0381" x="460.27" y="618.972">Tool: CallEnterpriseAPI</text><text fill="#000000" font-family="sans-serif" font-size="14" lengthAdjust="spacing" textLength="111.9995" x="460.27" y="635.2689">&#65288;&#21628;&#21483;&#20225;&#26989;&#26381;&#21209;&#65289;</text></g><!--entity user--><g class="entity" data-qualified-name="user" data-source-line="5" id="ent0002"><ellipse cx="181.7897" cy="51.2969" fill="#F1F1F1" rx="8" ry="8" style="stroke:#181818;stroke-width:0.5;"/><path d="M181.7897,59.2969 L181.7897,86.2969 M168.7897,67.2969 L194.7897,67.2969 M181.7897,86.2969 L168.7897,101.2969 M181.7897,86.2969 L194.7897,101.2969" fill="none" style="stroke:#181818;stroke-width:0.5;"/><text fill="#000000" font-family="sans-serif" font-size="14" lengthAdjust="spacing" textLength="139.9994" x="111.79" y="115.792">&#35069;&#36896;&#24288;&#21312;&#31532;&#19968;&#32218;&#20316;&#26989;&#32773;</text></g><!--entity LocalData--><g class="entity" data-qualified-name="LocalData" data-source-line="19" id="ent0011"><path d="M6,738.0769 C6,728.0769 85.7913,728.0769 85.7913,728.0769 C85.7913,728.0769 165.5826,728.0769 165.5826,738.0769 L165.5826,779.6706 C165.5826,789.6706 85.7913,789.6706 85.7913,789.6706 C85.7913,789.6706 6,789.6706 6,779.6706 L6,738.0769" fill="#F1F1F1" style="stroke:#181818;stroke-width:0.5;"/><path d="M6,738.0769 C6,748.0769 85.7913,748.0769 85.7913,748.0769 C85.7913,748.0769 165.5826,748.0769 165.5826,738.0769" fill="none" style="stroke:#181818;stroke-width:0.5;"/><text fill="#000000" font-family="sans-serif" font-size="14" lengthAdjust="spacing" textLength="69.959" x="16" y="765.072">LocalData</text><text fill="#000000" font-family="sans-serif" font-size="14" lengthAdjust="spacing" textLength="139.5826" x="16" y="781.3689">&#65288;SOP / &#22577;&#34920; / &#27284;&#26696;&#65289;</text></g><!--entity MESDB--><g class="entity" data-qualified-name="MESDB" data-source-line="20" id="ent0012"><path d="M200.33,738.0769 C200.33,728.0769 330.7891,728.0769 330.7891,728.0769 C330.7891,728.0769 461.2482,728.0769 461.2482,738.0769 L461.2482,779.6706 C461.2482,789.6706 330.7891,789.6706 330.7891,789.6706 C330.7891,789.6706 200.33,789.6706 200.33,779.6706 L200.33,738.0769" fill="#F1F1F1" style="stroke:#181818;stroke-width:0.5;"/><path d="M200.33,738.0769 C200.33,748.0769 330.7891,748.0769 330.7891,748.0769 C330.7891,748.0769 461.2482,748.0769 461.2482,738.0769" fill="none" style="stroke:#181818;stroke-width:0.5;"/><text fill="#000000" font-family="sans-serif" font-size="14" lengthAdjust="spacing" textLength="57.1963" x="210.33" y="765.072">MES_DB</text><text fill="#000000" font-family="sans-serif" font-size="14" lengthAdjust="spacing" textLength="240.9182" x="210.33" y="781.3689">&#65288;&#24037;&#21934; / &#22577;&#24037; / &#24037;&#26178; / &#33391;&#29575; / &#19981;&#33391;&#29575; &#65289;</text></g><!--entity RemoteAPI--><g class="entity" data-qualified-name="RemoteAPI" data-source-line="21" id="ent0013"><path d="M505.3923,737.8206 C509.0989,731.0781 513.191,730.6779 517.8476,736.9085 C522.078,730.484 528.314,729.5383 532.7959,736.6304 C535.5521,730.3461 541.5345,729.5605 545.0385,735.9055 C549.823,727.5291 555.0776,726.9035 560.7166,735.097 C564.9169,730.1006 569.5231,730.1744 573.0019,735.9219 C575.94,729.2216 582.3312,728.5486 586.1965,734.991 C591.1628,728.9986 597.2499,728.8304 601.0184,736.309 C604.1662,730.1938 608.8043,729.9609 613.3895,734.6655 C617.6557,728.6718 622.6328,728.5551 626.7719,734.8044 C631.8009,729.7011 636.6735,730.3463 640.1912,736.5915 C643.8533,729.2118 649.6386,729.6384 653.7453,736.1579 C657.4667,728.7557 662.3237,729.8722 666.7821,735.4157 C672.2617,728.9112 677.9954,728.0442 682.4565,736.484 C685.7923,730.142 690.497,730.0183 694.2577,736.0797 C707.6281,740.239 710.0022,750.6468 699.9586,760.314 C708.6636,771.3507 707.4376,778.8649 693.6804,783.9303 C690.3675,788.9858 685.5456,790.1618 681.9504,784.2317 C678.4663,790.9907 673.7661,791.3214 668.6752,785.997 C664.0679,791.719 659.0542,793.3394 654.6528,785.7797 C649.1951,793.1514 643.9719,792.5878 639.5538,784.7477 C635.9924,790.6519 632.3173,790.8121 627.656,785.9649 C623.8924,792.3224 619.6806,794.0258 613.9395,788.1896 C610.8683,794.5879 604.9943,793.791 601.3023,788.8834 C595.3893,795.8501 590.3251,794.586 586.9963,786.4375 C583.6854,793.4529 577.5114,793.2604 573.5616,787.0884 C568.3593,792.6131 564.3234,791.4835 560.3175,785.6887 C555.8483,793.3914 550.4315,792.5363 545.5616,786.1071 C540.4068,792.9373 535.0916,791.5403 531.856,784.245 C528.0818,790.9311 522.0596,790.1869 517.916,784.667 C514.5165,790.8753 509.3128,789.6311 506.2004,784.3736 C490.4525,782.3735 488.4027,772.7457 496.7336,760.9952 C488.3347,749.2096 490.515,740.9096 505.3923,737.8206" fill="#F1F1F1" style="stroke:#181818;stroke-width:0.5;"/><text fill="#000000" font-family="sans-serif" font-size="14" lengthAdjust="spacing" textLength="113.6816" x="510.97" y="755.572">RemoteServices</text><text fill="#000000" font-family="sans-serif" font-size="14" lengthAdjust="spacing" textLength="175.6425" x="510.97" y="771.8689">&#65288;ERP / WMS / QMS API&#65289;</text></g><!--link user to UI--><g class="link" data-entity-1="ent0002" data-entity-2="ent0004" data-link-type="dependency" data-source-line="23" id="lnk14"><path d="M131.18,119.4269 C119,133.1169 111.17,149.3669 117.79,166.0869 C125.86,186.4569 138.6216,200.4308 153.2316,212.7408" fill="none" id="user-to-UI" style="stroke:#181818;stroke-width:1;"/><polygon fill="#181818" points="157.82,216.6069,153.5148,207.7488,153.9963,213.3851,148.36,213.8667,157.82,216.6069" style="stroke:#181818;stroke-width:1;"/><text fill="#000000" font-family="sans-serif" font-size="13" lengthAdjust="spacing" textLength="81.3389" x="118.79" y="162.1538">AskQuestion</text></g><!--link UI to user--><g class="link" data-entity-1="ent0004" data-entity-2="ent0002" data-link-type="dependency" data-source-line="35" id="lnk24"><path d="M191.07,216.8469 C199.07,199.7969 208.77,172.9569 204.79,149.0869 C203.15,139.2469 202.1653,134.593 198.9553,125.063" fill="none" id="UI-to-user" style="stroke:#181818;stroke-width:1;"/><polygon fill="#181818" points="197.04,119.3769,196.1221,129.1829,198.636,124.1153,203.7036,126.6292,197.04,119.3769" style="stroke:#181818;stroke-width:1;"/><text fill="#000000" font-family="sans-serif" font-size="13" lengthAdjust="spacing" textLength="78.0001" x="205.79" y="162.1538">&#39023;&#31034;&#22238;&#35206;&#31572;&#26696;</text></g><!--link UI to LLM--><g class="link" data-entity-1="ent0004" data-entity-2="ent0005" data-link-type="dependency" data-source-line="24" id="lnk15"><path d="M135.86,253.8069 C113.63,265.1669 94.05,281.3569 105.79,300.3869 C113.85,313.4369 121.3923,320.2761 135.0723,327.2361" fill="none" id="UI-to-LLM" style="stroke:#181818;stroke-width:1;"/><polygon fill="#181818" points="140.42,329.9569,134.2123,322.3106,135.9636,327.6896,130.5847,329.4409,140.42,329.9569" style="stroke:#181818;stroke-width:1;"/><text fill="#000000" font-family="sans-serif" font-size="13" lengthAdjust="spacing" textLength="111.1157" x="106.79" y="296.4538">ForwardQuestion</text></g><!--link LLM to UI--><g class="link" data-entity-1="ent0005" data-entity-2="ent0004" data-link-type="dependency" data-source-line="34" id="lnk23"><path d="M212.91,330.0669 C220.96,317.1369 228.68,299.1169 222.79,283.3869 C218.61,272.2069 214.6528,266.219 206.7128,258.129" fill="none" id="LLM-to-UI" style="stroke:#181818;stroke-width:1;"/><polygon fill="#181818" points="202.51,253.8469,205.9594,263.0719,206.0123,257.4153,211.6689,257.4683,202.51,253.8469" style="stroke:#181818;stroke-width:1;"/><text fill="#000000" font-family="sans-serif" font-size="13" lengthAdjust="spacing" textLength="143.2604" x="225.79" y="296.4538">Answer&#65288;&#21547;&#24341;&#29992;/&#25976;&#25818;&#65289;</text></g><!--link LLM to MCPClient--><g class="link" data-entity-1="ent0005" data-entity-2="ent0006" data-link-type="dependency" data-source-line="25" id="lnk16"><path d="M113.72,367.1469 C99.17,373.9869 85.86,383.4869 76.79,396.6869 C62.73,417.1269 78.7647,430.4048 105.2247,441.0648" fill="none" id="LLM-to-MCPClient" style="stroke:#181818;stroke-width:1;"/><polygon fill="#181818" points="110.79,443.3069,103.9367,436.2335,106.1522,441.4384,100.9473,443.6539,110.79,443.3069" style="stroke:#181818;stroke-width:1;"/><text fill="#000000" font-family="sans-serif" font-size="13" lengthAdjust="spacing" textLength="288.8503" x="77.79" y="409.7538">ToolRequest&#65288;&#30332;&#20986;&#24037;&#20855;&#35531;&#27714;&#65292;&#33509;&#38656;&#35201;&#22806;&#37096;&#36039;&#26009;&#65289;</text></g><!--link MCPClient to LLM--><g class="link" data-entity-1="ent0006" data-entity-2="ent0005" data-link-type="dependency" data-source-line="33" id="lnk22"><path d="M279.29,447.5169 C319.45,440.0769 358.63,429.1069 370.79,413.6869 C397.68,379.5669 352.7515,364.4229 299.6615,356.9529" fill="none" id="MCPClient-to-LLM" style="stroke:#181818;stroke-width:1;"/><polygon fill="#181818" points="293.72,356.1169,302.0749,361.3318,298.6712,356.8135,303.1895,353.4099,293.72,356.1169" style="stroke:#181818;stroke-width:1;"/><text fill="#000000" font-family="sans-serif" font-size="13" lengthAdjust="spacing" textLength="178.985" x="378.79" y="409.7538">ToolResults&#65288;&#24037;&#20855;&#22519;&#34892;&#32080;&#26524;&#65289;</text></g><!--link MCPClient to MCPServer--><g class="link" data-entity-1="ent0006" data-entity-2="ent0007" data-link-type="dependency" data-source-line="26" id="lnk17"><path d="M64.8114,482.4534 C48.5314,489.7234 39.17,497.5369 28.79,511.9769 C14.69,531.6019 18.345,558.3869 25.6937,580.5294 C27.5309,586.065 29.599,591.3105 31.6782,596.0814 C32.7178,598.4668 33.7602,600.7336 34.7779,602.8587 C35.2867,603.9213 35.7894,604.9484 36.2825,605.9373 C36.4058,606.1845 33.8305,601.0701 33.9525,601.3124" fill="none" id="MCPClient-MCPServer" style="stroke:#181818;stroke-width:1;"/><polygon fill="#181818" points="70.29,480.0069,60.4412,480.0243,65.7245,482.0456,63.7032,487.329,70.29,480.0069" style="stroke:#181818;stroke-width:1;"/><polygon fill="#181818" points="36.6505,606.6716,36.1763,596.8342,34.4022,602.2056,29.0307,600.4315,36.6505,606.6716" style="stroke:#181818;stroke-width:1;"/><text fill="#000000" font-family="sans-serif" font-size="13" lengthAdjust="spacing" textLength="115.2989" x="29.79" y="525.0438">MCP Protocol &#21332;&#23450;</text></g><!--link MCPServer to MCPClient--><g class="link" data-entity-1="ent0007" data-entity-2="ent0006" data-link-type="dependency" data-source-line="32" id="lnk21"><path d="M51.9852,552.7822 C52.1127,552.523 52.2419,552.2648 52.373,552.0077 C52.635,551.4934 52.904,550.9833 53.1802,550.4777 C53.7326,549.4665 54.3138,548.4733 54.925,547.5005 C57.37,543.6095 60.2963,540.0469 63.79,536.9769 C78.21,524.3069 134.52,540.6169 149.79,528.9769 C164.93,517.4469 169.9923,501.5578 172.3523,486.1378" fill="none" id="MCPServer-to-MCPClient" style="stroke:#181818;stroke-width:1;"/><polygon fill="#181818" points="173.26,480.2069,167.9445,488.4981,172.5036,485.1493,175.8524,489.7084,173.26,480.2069" style="stroke:#181818;stroke-width:1;"/><text fill="#000000" font-family="sans-serif" font-size="13" lengthAdjust="spacing" textLength="178.985" x="163.79" y="525.0438">ToolResults&#65288;&#24037;&#20855;&#22519;&#34892;&#32080;&#26524;&#65289;</text></g><!--link ToolFiles to LocalData--><g class="link" data-entity-1="ent0008" data-entity-2="ent0011" data-link-type="dependency" data-source-line="28" id="lnk18"><path d="M134.36,648.9069 C124.37,671.3369 112.2839,698.4472 101.7139,722.1472" fill="none" id="ToolFiles-to-LocalData" style="stroke:#181818;stroke-width:1;"/><polygon fill="#181818" points="99.27,727.6269,106.589,721.0366,101.3066,723.0604,99.2827,717.778,99.27,727.6269" style="stroke:#181818;stroke-width:1;"/></g><!--link ToolShopfloor to MESDB--><g class="link" data-entity-1="ent0009" data-entity-2="ent0012" data-link-type="dependency" data-source-line="29" id="lnk19"><path d="M330.79,648.9069 C330.79,671.3369 330.79,697.9269 330.79,721.6269" fill="none" id="ToolShopfloor-to-MESDB" style="stroke:#181818;stroke-width:1;"/><polygon fill="#181818" points="330.79,727.6269,334.79,718.6269,330.79,722.6269,326.79,718.6269,330.79,727.6269" style="stroke:#181818;stroke-width:1;"/></g><!--link ToolAPI to RemoteAPI--><g class="link" data-entity-1="ent0010" data-entity-2="ent0013" data-link-type="dependency" data-source-line="30" id="lnk20"><path d="M551.03,648.9069 C560.79,671.1769 572.5406,697.9919 582.9106,721.6419" fill="none" id="ToolAPI-to-RemoteAPI" style="stroke:#181818;stroke-width:1;"/><polygon fill="#181818" points="585.32,727.1369,585.3692,717.2881,583.3121,722.5577,578.0426,720.5007,585.32,727.1369" style="stroke:#181818;stroke-width:1;"/></g><?plantuml-src ZLDHJzfG67tlhxZXtVXEbYMAcfb8XZ2pboLB1zr6hBsiBNDcML9q20v1p90DXo0g3eVYpA8GWVXdsjlsoR-mxxQbmEB3NfgFUyyvz_lETv2ZCiyX_sm8VK1-N-2-bzQ-L8sDFcdKzElFvhUoUhT-tzjY66avAiHOaLr1ORmImm8do25v3RWY5vPPuGtFCGmRbh68ZEE-gHngtKCjg-Zdvsf7qTlxQhzCwXU6aaIiXE8I9pACIqGUUF_b4op9y3nj9O15cUNH9DBQTT1HEnSazrFR-GsDU2WVC1IDFZ9es0toBCq3NozdoC4TS4crRfmTEIB5re2xD3zEMbZmqw7JcwIIfwpTxyPfWXQvXfxV7B00DKu3hv3MEYBf6xrv2GAcSanoTQtK0AhHtpALXDkiB-3Zeq1YFetF30fgxvQKiy2YZJTBPhUYTZFc0UtQJ9oPIVlArGbnudjE_7ViPnZpNXJasCXSbEUa5mA86Is5bC_9MPLEKaoftPk134LRk8T45kESk1PwYsElUOn5Imbir0j7i47ZJueKIwCoBl0XAH_ByxE2p8anCIfnKu5vIqtRxMaxJRMNW33GoJDZWe2Y9aLOcNt5Ik3H0Wwp_0pyjCYXfm6wpiCheqPj9hyAf9PsDpI0Zj1fh6QcxOUj4DXqgErOaD8wNTVMfPvBGQ5siauz4hIPQIRCutW4UOBS2fOvkeDesB5vDaWxUkuFmNSHlZ30W6gZwKGCZJkQc7WCsKDUD2KjWysI7CK20mVq7D855tDON6N5Y7j9J-cj6o30K9U2t3iAeP4fzRJKBHqjsJQQ6N85VzLj8rCtomg4M3ifcXiDTstCKEUH8-laoKjh512nZCEOHrgseBNs6SPDYjsZw-_OwkqEBPkS3Led8zCFttbu62dEovApeMHRgxQDshP-dIULydZJGwF-XpSmpxPSa5OvaMBpJQstfnSQasIlGxxkKwIp0sj9NcJMBlMJM-r7nJZTr2zemFu2?></g></svg>